# xmcd
#
# Track frame offsets: 
#        150
#        13375
#        23898
#        35008
#        47843
#        60634
#        74919
#        88857
#        98215
#        110516
#        118560
#        132572
#        140517
#        154097
#        161363
#
# Disc length: 2258 seconds
#
# Revision: 0
# Processed by: cddbd v1.5.2PL0 Copyright (c) Steve Scherf et al.
# Submitted via: ExactAudioCopyFreeDBPlugin 1.0
#
DISCID=dc08d00f
DTITLE=Sons of the Pioneers - 85 Years of Harmony
DYEAR=1900
DGENRE=Country
TTITLE0=Ghost Riders in the Sky
TTITLE1=Don't Fence Me In
TTITLE2=Skyball Paint
TTITLE3=Along the Santa Fe Trail
TTITLE4=Cool Water
TTITLE5=Chant of the Plains
TTITLE6=Goldmine in the Sky
TTITLE7=When Payday Rolls Around
TTITLE8=Teardrops in My Heart
TTITLE9=My Adobe Hacienda
TTITLE10=Song of the Prairie
TTITLE11=Cimarron (Roll On)
TTITLE12=Blue Prairie
TTITLE13=Fiddlin' Around
TTITLE14=Tumbling Tumblweeds
EXTD=
EXTT0=
EXTT1=
EXTT2=
EXTT3=
EXTT4=
EXTT5=
EXTT6=
EXTT7=
EXTT8=
EXTT9=
EXTT10=
EXTT11=
EXTT12=
EXTT13=
EXTT14=
PLAYORDER=
